<svg width="25" height="25" viewBox="0 0 25 25" fill="none" xmlns="http://www.w3.org/2000/svg">
<path d="M17.7083 18.7344V24.9844H21.875C23.6008 24.9844 25 23.5853 25 21.8594V12.3584C25.0003 11.8172 24.79 11.2972 24.4135 10.9084L15.5615 1.33858C13.9996 -0.351357 11.3634 -0.455117 9.67349 1.1068C9.59321 1.18101 9.51587 1.25831 9.44169 1.33858L0.605225 10.9053C0.217432 11.2957 -0.000146411 11.8237 7.3918e-08 12.374V21.8594C7.3918e-08 23.5853 1.39912 24.9844 3.125 24.9844H7.29165V18.7344C7.31114 15.894 9.60444 13.5745 12.3733 13.5077C15.2349 13.4386 17.6865 15.7976 17.7083 18.7344Z" fill="#F46E27"/>
<path d="M12.5 15.6094C10.7741 15.6094 9.375 17.0085 9.375 18.7344V24.9844H15.625V18.7344C15.625 17.0085 14.2258 15.6094 12.5 15.6094Z" fill="#F46E27"/>
</svg>
