<svg width="25" height="26" viewBox="0 0 25 26" fill="none" xmlns="http://www.w3.org/2000/svg">
<path d="M24.0844 9.4442L16.1833 1.54212C15.2054 0.567108 13.8809 0.0195923 12.5 0.0195923C11.1191 0.0195923 9.79455 0.567108 8.81668 1.54212L0.915637 9.4442C0.624414 9.73356 0.393522 10.0778 0.236348 10.4571C0.0791741 10.8364 -0.00115667 11.243 1.25828e-05 11.6536V21.8796C1.25828e-05 22.7084 0.329253 23.5033 0.915304 24.0894C1.50136 24.6753 2.29621 25.0046 3.12501 25.0046H21.875C22.7037 25.0046 23.4986 24.6753 24.0847 24.0894C24.6708 23.5033 25 22.7084 25 21.8796V11.6536C25.0012 11.243 24.9208 10.8364 24.7636 10.4571C24.6065 10.0778 24.3755 9.73356 24.0844 9.4442ZM15.625 22.9213H9.37501V18.8234C9.37501 17.9945 9.70424 17.1996 10.2903 16.6137C10.8764 16.0276 11.6712 15.6984 12.5 15.6984C13.3288 15.6984 14.1236 16.0276 14.7097 16.6137C15.2958 17.1996 15.625 17.9945 15.625 18.8234V22.9213ZM22.9167 21.8796C22.9167 22.1559 22.8069 22.4209 22.6115 22.6162C22.4162 22.8116 22.1512 22.9213 21.875 22.9213H17.7083V18.8234C17.7083 17.442 17.1596 16.1173 16.1829 15.1405C15.2061 14.1638 13.8813 13.615 12.5 13.615C11.1187 13.615 9.79391 14.1638 8.81716 15.1405C7.84041 16.1173 7.29168 17.442 7.29168 18.8234V22.9213H3.12501C2.84875 22.9213 2.58379 22.8116 2.38844 22.6162C2.1931 22.4209 2.08335 22.1559 2.08335 21.8796V11.6536C2.0843 11.3775 2.19396 11.1129 2.38855 10.9171L10.2896 3.01816C10.8768 2.43371 11.6715 2.1056 12.5 2.1056C13.3285 2.1056 14.1232 2.43371 14.7104 3.01816L22.6115 10.9202C22.8053 11.1153 22.9148 11.3786 22.9167 11.6536V21.8796Z" fill="#87888C"/>
</svg>
