<svg width="20" height="25" viewBox="0 0 20 25" fill="none" xmlns="http://www.w3.org/2000/svg">
<path d="M9.75001 12.5C11.0356 12.5 12.2923 12.1335 13.3612 11.4467C14.4301 10.7599 15.2633 9.78379 15.7552 8.64179C16.2472 7.49975 16.376 6.24307 16.1251 5.03069C15.8744 3.81831 15.2552 2.70466 14.3462 1.83059C13.4371 0.95651 12.279 0.361253 11.0181 0.120095C9.75718 -0.121063 8.45032 0.00270805 7.26253 0.475756C6.07484 0.9488 5.05967 1.74988 4.34544 2.77769C3.63122 3.8055 3.25 5.01387 3.25 6.25C3.25172 7.90711 3.9371 9.49586 5.15571 10.6676C6.37432 11.8394 8.02662 12.4984 9.75001 12.5ZM9.75001 2.08334C10.6071 2.08334 11.4449 2.32771 12.1575 2.78555C12.8701 3.24339 13.4255 3.89413 13.7535 4.65549C14.0815 5.41685 14.1673 6.25463 14.0001 7.06288C13.8328 7.87114 13.4202 8.61357 12.8142 9.19629C12.2082 9.77899 11.436 10.1759 10.5954 10.3366C9.75479 10.4974 8.88348 10.4149 8.09172 10.0995C7.29987 9.78419 6.62312 9.25009 6.14696 8.56489C5.67081 7.87968 5.41667 7.07409 5.41667 6.25C5.41667 5.14494 5.87322 4.08513 6.68587 3.30373C7.49851 2.52232 8.6007 2.08334 9.75001 2.08334Z" fill="#87888C"/>
<path d="M9.75001 14.5833C7.16498 14.5861 4.68673 15.5747 2.85888 17.3323C1.03102 19.0898 0.0028704 21.4728 0 23.9584C0 24.2346 0.11414 24.4996 0.317304 24.6949C0.520468 24.8903 0.796017 25 1.08334 25C1.37065 25 1.64621 24.8903 1.84937 24.6949C2.05254 24.4996 2.16667 24.2346 2.16667 23.9584C2.16667 22.0245 2.96562 20.1698 4.38777 18.8024C5.80993 17.4349 7.73875 16.6667 9.75001 16.6667C11.7613 16.6667 13.6901 17.4349 15.1123 18.8024C16.5344 20.1698 17.3334 22.0245 17.3334 23.9584C17.3334 24.2346 17.4475 24.4996 17.6507 24.6949C17.8538 24.8903 18.1294 25 18.4166 25C18.704 25 18.9796 24.8903 19.1827 24.6949C19.3859 24.4996 19.5 24.2346 19.5 23.9584C19.4971 21.4728 18.469 19.0898 16.6412 17.3323C14.8133 15.5747 12.335 14.5861 9.75001 14.5833Z" fill="#87888C"/>
</svg>
