<svg width="25" height="25" viewBox="0 0 25 25" fill="none" xmlns="http://www.w3.org/2000/svg">
<path fill-rule="evenodd" clip-rule="evenodd" d="M9.13469 0H3.84592C2.82592 0 1.84769 0.405194 1.12644 1.12644C0.405194 1.84769 3.45058e-08 2.82592 3.45058e-08 3.84592V3.84592V21.1541C-6.76171e-05 21.6591 0.0993429 22.1593 0.292556 22.6259C0.485769 23.0925 0.769 23.5165 1.12608 23.8737C1.48316 24.2309 1.90709 24.5142 2.37367 24.7076C2.84025 24.9009 3.34035 25.0004 3.8454 25.0005H21.1536C22.1737 25.0005 23.1521 24.5953 23.8734 23.8739C24.5948 23.1526 25 22.1742 25 21.1541V7.69286C25 6.67272 24.5948 5.69437 23.8734 4.97302C23.1521 4.25168 22.1737 3.84643 21.1536 3.84643H9.61479C9.60552 3.45339 9.60552 3.45339 9.59315 2.9223C9.58079 2.39121 9.58079 2.39121 9.57049 1.92347C9.58491 1.92347 9.59985 3.84592 9.61479 3.84643H13.4962L11.4419 1.15439C11.1931 0.822487 10.8756 0.548148 10.5112 0.350086C10.1467 0.152024 9.74378 0.034898 9.32993 0.00669661L9.13469 0ZM6.73061 16.3469C6.98559 16.3469 7.23013 16.4482 7.41048 16.6284C7.59082 16.8087 7.69221 17.0532 7.69235 17.3082V17.3082V19.2311C7.69235 19.3574 7.66747 19.4825 7.61914 19.5992C7.57081 19.7158 7.49997 19.8219 7.41066 19.9112C7.32136 20.0005 7.21533 20.0713 7.09865 20.1197C6.98197 20.168 6.85691 20.1929 6.73061 20.1929H4.80765C4.55258 20.1929 4.30796 20.0915 4.1276 19.9112C3.94724 19.7308 3.84592 19.4862 3.84592 19.2311V17.3082C3.84592 17.0531 3.94724 16.8085 4.1276 16.6281C4.30796 16.4478 4.55258 16.3464 4.80765 16.3464H6.73061V16.3469ZM16.3464 17.3082C16.4729 17.305 16.5987 17.3267 16.7167 17.3722C16.8347 17.4177 16.9426 17.4861 17.0342 17.5733C17.1257 17.6606 17.1992 17.765 17.2503 17.8807C17.3015 17.9964 17.3293 18.121 17.3322 18.2474C17.3351 18.3739 17.3131 18.4997 17.2673 18.6176C17.2216 18.7355 17.153 18.8432 17.0655 18.9346C16.9781 19.026 16.8735 19.0992 16.7577 19.1501C16.6419 19.201 16.5172 19.2285 16.3907 19.2311C16.3763 19.2311 16.3614 19.2311 16.3464 19.2311H11.5388C11.4123 19.2343 11.2865 19.2126 11.1685 19.1671C11.0505 19.1216 10.9426 19.0532 10.851 18.966C10.7595 18.8787 10.686 18.7743 10.6349 18.6586C10.5837 18.5429 10.5559 18.4183 10.553 18.2918C10.5501 18.1654 10.5721 18.0396 10.6179 17.9217C10.6636 17.8038 10.7322 17.6961 10.8197 17.6047C10.9071 17.5133 11.0117 17.4401 11.1275 17.3892C11.2433 17.3383 11.368 17.3108 11.4945 17.3082H16.3464ZM6.73061 8.65408C6.98559 8.65408 7.23013 8.75534 7.41048 8.93559C7.59082 9.11584 7.69221 9.36033 7.69235 9.61531V11.5388C7.69235 11.6651 7.66747 11.7901 7.61914 11.9068C7.57081 12.0235 7.49997 12.1295 7.41066 12.2188C7.32136 12.3081 7.21533 12.379 7.09865 12.4273C6.98197 12.4756 6.85691 12.5005 6.73061 12.5005H4.80765C4.55258 12.5005 4.30796 12.3992 4.1276 12.2188C3.94724 12.0385 3.84592 11.7938 3.84592 11.5388V9.61582C3.84592 9.36075 3.94724 9.11613 4.1276 8.93577C4.30796 8.75541 4.55258 8.65408 4.80765 8.65408H6.73061ZM20.1929 9.61582C20.3193 9.61262 20.4451 9.63439 20.5631 9.67989C20.6812 9.72539 20.789 9.79372 20.8806 9.88097C20.9722 9.96821 21.0456 10.0727 21.0968 10.1883C21.1479 10.304 21.1758 10.4287 21.1787 10.5551C21.1816 10.6815 21.1595 10.8073 21.1138 10.9252C21.068 11.0431 20.9994 11.1509 20.912 11.2422C20.8245 11.3336 20.7199 11.4068 20.6041 11.4577C20.4883 11.5086 20.3636 11.5362 20.2372 11.5388H11.5388C11.2876 11.533 11.0487 11.4291 10.8732 11.2494C10.6976 11.0698 10.5993 10.8285 10.5993 10.5773C10.5993 10.3261 10.6976 10.0848 10.8732 9.90516C11.0487 9.72548 11.2876 9.62163 11.5388 9.61582H20.1929Z" fill="#F46E27"/>
</svg>
