<svg width="25" height="25" viewBox="0 0 25 25" fill="none" xmlns="http://www.w3.org/2000/svg">
<path fill-rule="evenodd" clip-rule="evenodd" d="M9.58348 1.49532e-09C10.2303 -1.73264e-05 10.8683 0.150563 11.4469 0.439818C12.0255 0.729073 12.5288 1.14906 12.917 1.66652L14.167 3.33348H20C21.3261 3.33348 22.5979 3.86027 23.5355 4.79795C24.4732 5.73563 25 7.0074 25 8.33348V20C25 21.3261 24.4732 22.5979 23.5355 23.5355C22.5979 24.4732 21.3261 25 20 25H5C3.67392 25 2.40215 24.4732 1.46447 23.5355C0.526784 22.5979 0 21.3261 0 20L0 5C0 3.67392 0.526784 2.40215 1.46447 1.46447C2.40215 0.526784 3.67392 1.49532e-09 5 1.49532e-09L9.58348 1.49532e-09ZM9.58348 1.66652H5C4.56226 1.66652 4.12881 1.75274 3.7244 1.92027C3.31999 2.0878 2.95254 2.33335 2.64303 2.6429C2.33352 2.95245 2.08802 3.31993 1.92055 3.72437C1.75307 4.1288 1.66691 4.56226 1.66696 5V20C1.66691 20.4377 1.75307 20.8712 1.92055 21.2756C2.08802 21.6801 2.33352 22.0476 2.64303 22.3571C2.95254 22.6666 3.31999 22.9122 3.7244 23.0797C4.12881 23.2473 4.56226 23.3335 5 23.3335H20C20.8841 23.3335 21.732 22.9823 22.3571 22.3571C22.9823 21.732 23.3335 20.8841 23.3335 20V8.33348C23.3335 7.44939 22.9823 6.6015 22.3571 5.97635C21.732 5.3512 20.8841 5 20 5H14.167H10C9.88895 5.00257 9.77851 4.98292 9.67517 4.9422C9.57182 4.90148 9.47766 4.84051 9.39821 4.76288C9.31876 4.68525 9.25563 4.59253 9.21253 4.49015C9.16943 4.38778 9.14723 4.27782 9.14723 4.16674C9.14723 4.05566 9.16943 3.94571 9.21253 3.84333C9.25563 3.74096 9.31876 3.64823 9.39821 3.5706C9.47766 3.49297 9.57182 3.432 9.67517 3.39128C9.77851 3.35056 9.88895 3.33091 10 3.33348H12.083L11.583 2.66696C11.3674 2.37932 11.0923 2.14157 10.7764 1.96992C10.4605 1.79827 10.1113 1.69676 9.75268 1.67232L9.58348 1.66652ZM7.5 15.8335C7.72105 15.8335 7.93305 15.9213 8.08936 16.0776C8.24567 16.2339 8.33348 16.4459 8.33348 16.667V18.3335C8.33348 18.5545 8.24567 18.7665 8.08936 18.9228C7.93305 19.0792 7.72105 19.167 7.5 19.167H5.83348C5.61243 19.167 5.40043 19.0792 5.24412 18.9228C5.08781 18.7665 5 18.5545 5 18.3335V16.667C5 16.5575 5.02156 16.4491 5.06345 16.348C5.10533 16.2469 5.16673 16.155 5.24412 16.0776C5.32152 16.0002 5.4134 15.9388 5.51452 15.8969C5.61565 15.855 5.72403 15.8335 5.83348 15.8335H7.5ZM15.8335 16.667C15.9445 16.6644 16.055 16.684 16.1583 16.7248C16.2617 16.7655 16.3558 16.8265 16.4353 16.9041C16.5147 16.9817 16.5778 17.0744 16.6209 17.1768C16.6641 17.2792 16.6863 17.3891 16.6863 17.5002C16.6863 17.6113 16.6641 17.7213 16.6209 17.8236C16.5778 17.926 16.5147 18.0187 16.4353 18.0964C16.3558 18.174 16.2617 18.235 16.1583 18.2757C16.055 18.3164 15.9445 18.3361 15.8335 18.3335H11.667C11.5559 18.3361 11.4455 18.3164 11.3421 18.2757C11.2388 18.235 11.1446 18.174 11.0652 18.0964C10.9857 18.0187 10.9226 17.926 10.8795 17.8236C10.8364 17.7213 10.8142 17.6113 10.8142 17.5002C10.8142 17.3891 10.8364 17.2792 10.8795 17.1768C10.9226 17.0744 10.9857 16.9817 11.0652 16.9041C11.1446 16.8265 11.2388 16.7655 11.3421 16.7248C11.4455 16.684 11.5559 16.6644 11.667 16.667H15.8335ZM7.5 9.16696C7.72098 9.16696 7.93291 9.25472 8.0892 9.41093C8.2455 9.56714 8.33336 9.77902 8.33348 10V11.6665C8.33348 11.776 8.31192 11.8844 8.27004 11.9855C8.22815 12.0866 8.16676 12.1785 8.08936 12.2559C8.01197 12.3333 7.92008 12.3947 7.81896 12.4366C7.71784 12.4784 7.60945 12.5 7.5 12.5H5.83348C5.61251 12.5 5.40057 12.4122 5.24428 12.256C5.08798 12.0998 5.00012 11.8879 5 11.667V10C5 9.89055 5.02156 9.78216 5.06345 9.68104C5.10533 9.57992 5.16673 9.48804 5.24412 9.41064C5.32152 9.33324 5.4134 9.27185 5.51452 9.22996C5.61565 9.18808 5.72403 9.16652 5.83348 9.16652L7.5 9.16696ZM19.167 10C19.278 9.99743 19.3885 10.0171 19.4918 10.0578C19.5951 10.0985 19.6893 10.1595 19.7688 10.2371C19.8482 10.3147 19.9113 10.4075 19.9544 10.5098C19.9975 10.6122 20.0197 10.7222 20.0197 10.8333C20.0197 10.9443 19.9975 11.0543 19.9544 11.1567C19.9113 11.259 19.8482 11.3518 19.7688 11.4294C19.6893 11.507 19.5951 11.568 19.4918 11.6087C19.3885 11.6494 19.278 11.6691 19.167 11.6665H11.667C11.4493 11.6615 11.2423 11.5715 11.0901 11.4158C10.938 11.26 10.8528 11.051 10.8528 10.8333C10.8528 10.6155 10.938 10.4065 11.0901 10.2508C11.2423 10.095 11.4493 10.005 11.667 10H19.167Z" fill="#87888C"/>
</svg>
