<svg width="31" height="33" viewBox="0 0 31 33" fill="none" xmlns="http://www.w3.org/2000/svg">
<g filter="url(#filter0_d_41_9)">
<path d="M25.5541 4.66726H15.1874L14.1874 3.13392C14.1874 3.13392 14.1874 3.10059 14.1541 3.10059C13.7207 2.60059 13.1207 2.33392 12.4541 2.33392H5.35405C4.95405 2.33392 4.65405 2.63392 4.65405 3.03392V18.1673C4.65405 18.7673 5.15405 19.2339 5.75405 19.2339H12.1207C12.3207 19.2339 12.4541 19.1006 12.4541 18.9006C12.4541 18.7006 12.3207 18.5673 12.1207 18.5673H5.75405C5.52072 18.5673 5.32072 18.4006 5.32072 18.1673V8.56726H25.9874V18.1673C25.9874 18.4006 25.7874 18.5673 25.5541 18.5673H24.9541C24.7541 18.5673 24.6207 18.7006 24.6207 18.9006C24.6207 19.1006 24.7541 19.2339 24.9541 19.2339H25.5541C26.1541 19.2339 26.6541 18.7673 26.6541 18.1673V5.76726C26.6541 5.33392 26.1874 4.66726 25.5541 4.66726ZM5.32072 7.90059V3.03392C5.32072 3.00059 5.32072 3.00059 5.35405 3.00059H12.4541C12.9207 3.00059 13.3541 3.20059 13.6207 3.53392L14.7207 5.20059C14.7874 5.30059 14.8874 5.33392 14.9874 5.33392H25.5207C25.7541 5.33392 25.9541 5.63392 25.9541 5.73392V7.90059H5.32072Z" fill="#87888C"/>
<path d="M21.4206 16.2672L25.0206 13.0006C25.2539 12.8006 25.3873 12.5339 25.3873 12.2339C25.3873 11.9339 25.2873 11.6339 25.0873 11.4339L24.1539 10.4006C23.7206 9.93391 23.0206 9.90058 22.5539 10.3339L21.0206 11.6672C21.0206 11.6672 20.9873 11.6672 20.9873 11.7006L18.8206 13.6672L15.0873 9.86724C14.9539 9.73391 14.7539 9.73391 14.6206 9.86724L11.1539 13.2672C11.0873 13.3339 11.0539 13.4006 11.0539 13.5006C11.0539 13.6006 11.0873 13.6672 11.1539 13.7339L14.7539 17.3672L12.2873 19.6339L12.2206 19.7006L9.88728 23.8339C9.82062 23.9672 9.82062 24.1006 9.92062 24.2339C10.0206 24.3339 10.1873 24.3672 10.2873 24.3006L14.5873 22.4006C14.6206 22.4006 14.6873 22.3672 14.7206 22.3339L17.3206 19.9672C17.5539 20.2006 21.4539 24.1672 21.4539 24.1672C21.5206 24.2339 21.6206 24.2672 21.6873 24.2672C21.7873 24.2672 21.8539 24.2339 21.9206 24.1672L25.3873 20.7672C25.4539 20.7006 25.4873 20.6339 25.4873 20.5339C25.4873 20.4339 25.4539 20.3672 25.3873 20.3006L21.4206 16.2672ZM20.3539 15.2006L22.2206 13.5339L22.7873 14.1339L20.9539 15.8006L20.3539 15.2006ZM22.9873 10.8006C23.1873 10.6339 23.4539 10.6339 23.6539 10.8339L24.5873 11.8672C24.6539 11.9672 24.7206 12.0672 24.7206 12.2006C24.7206 12.3339 24.6539 12.4339 24.5873 12.5339L23.2873 13.7006L22.5206 12.8339L21.7539 11.9672L22.9873 10.8006ZM21.1873 12.4339L21.7539 13.0339L19.8873 14.7339L19.3206 14.1339L21.1873 12.4339ZM12.9539 19.9006L15.2206 17.8339L15.7873 18.4006L13.4873 20.4672L12.9539 19.9006ZM12.5539 20.4339L13.9539 21.9672L10.9539 23.3006L12.5539 20.4339ZM14.5206 21.6006L13.9206 20.9339L16.2206 18.8672L16.8206 19.5006L14.5206 21.6006ZM21.7206 23.4672L20.8873 22.6339L22.8206 20.7339C22.9539 20.6006 22.9539 20.4006 22.8206 20.2672C22.6873 20.1339 22.4873 20.1339 22.3539 20.2672L20.4206 22.1672L19.5873 21.3339L20.6539 20.2672C20.7873 20.1339 20.7873 19.9339 20.6539 19.8006C20.5206 19.6672 20.3206 19.6672 20.1873 19.8006L19.1206 20.8672L18.3206 20.0339L20.2539 18.1339C20.3873 18.0006 20.3873 17.8006 20.2539 17.6672C20.1206 17.5339 19.9206 17.5339 19.7873 17.6672L17.8539 19.5672L17.0539 18.7339L18.1206 17.6672C18.254 17.5339 18.254 17.3339 18.1206 17.2006C17.9873 17.0672 17.7873 17.0672 17.6539 17.2006L16.5873 18.2672L15.7873 17.4339L17.7206 15.5339C17.8539 15.4006 17.8539 15.2006 17.7206 15.0672C17.5873 14.9339 17.3873 14.9339 17.2539 15.0672L15.3206 16.9672L14.5206 16.1339L15.5873 15.0672C15.7206 14.9339 15.7206 14.7339 15.5873 14.6006C15.4539 14.4672 15.2539 14.4672 15.1206 14.6006L13.9873 15.6672L13.1873 14.8339L15.1206 12.9339C15.2539 12.8006 15.2539 12.6006 15.1206 12.4672C14.9873 12.3339 14.7873 12.3339 14.6539 12.4672L12.7206 14.3672L11.8873 13.5006L14.8539 10.5672L20.6873 16.5006L24.6873 20.5672L21.7206 23.4672Z" fill="#87888C"/>
<path d="M6.58748 11.4006H11.8208C12.0208 11.4006 12.1542 11.2673 12.1542 11.0673C12.1542 10.8673 12.0208 10.7339 11.8208 10.7339H6.58748C6.38748 10.7339 6.25415 10.8673 6.25415 11.0673C6.25415 11.2339 6.42082 11.4006 6.58748 11.4006Z" fill="#87888C"/>
<path d="M6.58748 14.0339H10.1542C10.3542 14.0339 10.4875 13.9006 10.4875 13.7006C10.4875 13.5006 10.3542 13.3672 10.1542 13.3672H6.58748C6.38748 13.3672 6.25415 13.5006 6.25415 13.7006C6.25415 13.9006 6.42082 14.0339 6.58748 14.0339Z" fill="#87888C"/>
<path d="M6.58748 16.7006H11.8208C12.0208 16.7006 12.1542 16.5673 12.1542 16.3673C12.1542 16.1673 12.0208 16.0339 11.8208 16.0339H6.58748C6.38748 16.0339 6.25415 16.1673 6.25415 16.3673C6.25415 16.5339 6.42082 16.7006 6.58748 16.7006Z" fill="#87888C"/>
</g>
<defs>
<filter id="filter0_d_41_9" x="-1" y="0.411621" width="33" height="33" filterUnits="userSpaceOnUse" color-interpolation-filters="sRGB">
<feFlood flood-opacity="0" result="BackgroundImageFix"/>
<feColorMatrix in="SourceAlpha" type="matrix" values="0 0 0 0 0 0 0 0 0 0 0 0 0 0 0 0 0 0 127 0" result="hardAlpha"/>
<feOffset dy="4"/>
<feGaussianBlur stdDeviation="2"/>
<feComposite in2="hardAlpha" operator="out"/>
<feColorMatrix type="matrix" values="0 0 0 0 0 0 0 0 0 0 0 0 0 0 0 0 0 0 0.25 0"/>
<feBlend mode="normal" in2="BackgroundImageFix" result="effect1_dropShadow_41_9"/>
<feBlend mode="normal" in="SourceGraphic" in2="effect1_dropShadow_41_9" result="shape"/>
</filter>
</defs>
</svg>
