<svg width="22" height="22" viewBox="0 0 22 22" fill="none" xmlns="http://www.w3.org/2000/svg">
<path d="M20.9001 2.33H10.5301L9.53006 0.799998C9.32014 0.545462 9.05566 0.3414 8.75619 0.20292C8.45673 0.0644397 8.12995 -0.00491238 7.80006 -1.98581e-06H0.700059C0.607383 -0.0027703 0.51512 0.013443 0.42894 0.0476415C0.34276 0.08184 0.264484 0.133301 0.198923 0.198862C0.133362 0.264423 0.081901 0.342699 0.0477025 0.428879C0.0135041 0.515059 -0.00270927 0.607322 5.90493e-05 0.699998V15.83C0.00135566 15.9727 0.0309134 16.1137 0.0870245 16.2449C0.143136 16.3761 0.224688 16.4949 0.326969 16.5943C0.42925 16.6938 0.550233 16.7721 0.682926 16.8245C0.81562 16.877 0.957395 16.9026 1.10006 16.9H7.47006C7.51416 16.9029 7.55838 16.8964 7.59975 16.8809C7.64113 16.8654 7.6787 16.8411 7.70995 16.8099C7.74121 16.7786 7.76541 16.7411 7.78095 16.6997C7.7965 16.6583 7.80301 16.6141 7.80006 16.57C7.80287 16.5255 7.79634 16.4808 7.78089 16.439C7.76543 16.3971 7.7414 16.359 7.71032 16.327C7.67925 16.2949 7.64182 16.2698 7.60044 16.2531C7.55906 16.2364 7.51465 16.2285 7.47006 16.23H1.10006C1.04539 16.2327 0.990737 16.2244 0.939322 16.2056C0.887908 16.1868 0.840772 16.158 0.800696 16.1207C0.76062 16.0834 0.728414 16.0385 0.705978 15.9886C0.683541 15.9386 0.671328 15.8847 0.670059 15.83V6.23H21.3301V15.83C21.3288 15.8847 21.3166 15.9386 21.2941 15.9886C21.2717 16.0385 21.2395 16.0834 21.1994 16.1207C21.1593 16.158 21.1122 16.1868 21.0608 16.2056C21.0094 16.2244 20.9547 16.2327 20.9001 16.23H20.3001C20.2555 16.2285 20.2111 16.2364 20.1697 16.2531C20.1283 16.2698 20.0909 16.2949 20.0598 16.327C20.0287 16.359 20.0047 16.3971 19.9892 16.439C19.9738 16.4808 19.9672 16.5255 19.9701 16.57C19.9671 16.6141 19.9736 16.6583 19.9892 16.6997C20.0047 16.7411 20.0289 16.7786 20.0602 16.8099C20.0914 16.8411 20.129 16.8654 20.1704 16.8809C20.2117 16.8964 20.256 16.9029 20.3001 16.9H20.9001C21.0427 16.9026 21.1845 16.877 21.3172 16.8245C21.4499 16.7721 21.5709 16.6938 21.6731 16.5943C21.7754 16.4949 21.857 16.3761 21.9131 16.2449C21.9692 16.1137 21.9988 15.9727 22.0001 15.83V3.43C21.9753 3.14659 21.8514 2.88097 21.6503 2.6798C21.4491 2.47863 21.1835 2.35478 20.9001 2.33V2.33ZM0.670059 5.57V0.699998H7.80006C8.02469 0.688709 8.24901 0.727743 8.45662 0.814249C8.66424 0.900754 8.8499 1.03255 9.00006 1.2L10.1001 2.87C10.1273 2.91339 10.166 2.94846 10.2119 2.97138C10.2577 2.99431 10.309 3.0042 10.3601 3H20.8701C20.9727 3.01807 21.0679 3.06546 21.1442 3.13643C21.2205 3.20741 21.2746 3.29894 21.3001 3.4V5.57H0.670059Z" fill="#87888C"/>
<path d="M16.7701 13.93L20.3701 10.67C20.483 10.576 20.5738 10.4582 20.636 10.3252C20.6982 10.1921 20.7303 10.0469 20.7301 9.90001C20.7376 9.60453 20.63 9.3177 20.4301 9.10001L19.5001 8.10001C19.4026 7.9868 19.2835 7.89423 19.1497 7.82775C19.016 7.76127 18.8703 7.72223 18.7212 7.71291C18.5721 7.70359 18.4226 7.72419 18.2816 7.7735C18.1406 7.8228 18.0109 7.89982 17.9001 8.00001L16.3701 9.33001L14.2101 11.33L10.4701 7.53001C10.4403 7.49916 10.4045 7.47463 10.365 7.45788C10.3255 7.44113 10.283 7.4325 10.2401 7.4325C10.1972 7.4325 10.1547 7.44113 10.1152 7.45788C10.0757 7.47463 10.0399 7.49916 10.0101 7.53001L6.5001 10.93C6.46705 10.9604 6.44099 10.9976 6.42372 11.039C6.40646 11.0805 6.3984 11.1252 6.4001 11.17C6.39849 11.2134 6.40664 11.2566 6.42395 11.2964C6.44126 11.3362 6.46728 11.3716 6.5001 11.4L10.1001 15L7.6301 17.3L7.5701 17.37L5.2301 21.5C5.19177 21.5597 5.17139 21.6291 5.17139 21.7C5.17139 21.7709 5.19177 21.8403 5.2301 21.9C5.27485 21.9485 5.33389 21.9814 5.39864 21.994C5.46338 22.0065 5.53045 21.9982 5.5901 21.97L9.8901 20.07C9.94199 20.059 9.99019 20.0349 10.0301 20L12.6301 17.63L16.7601 21.83C16.8223 21.8898 16.9039 21.9253 16.9901 21.93C17.035 21.9317 17.0797 21.9237 17.1211 21.9064C17.1625 21.8891 17.1997 21.8631 17.2301 21.83L20.6901 18.43C20.7223 18.4009 20.748 18.3655 20.7656 18.3258C20.7832 18.2862 20.7923 18.2434 20.7923 18.2C20.7923 18.1567 20.7832 18.1138 20.7656 18.0742C20.748 18.0346 20.7223 17.9991 20.6901 17.97L16.7701 13.93ZM15.7001 12.87L17.5701 11.2L18.1301 11.8L16.3001 13.47L15.7001 12.87ZM18.3301 8.47001C18.3738 8.42556 18.426 8.39026 18.4835 8.36617C18.541 8.34208 18.6027 8.32967 18.6651 8.32967C18.7275 8.32967 18.7892 8.34208 18.8467 8.36617C18.9042 8.39026 18.9564 8.42556 19.0001 8.47001L19.9301 9.47001C19.9745 9.51375 20.0098 9.56589 20.0339 9.6234C20.058 9.68092 20.0704 9.74265 20.0704 9.80501C20.0704 9.86737 20.058 9.9291 20.0339 9.98661C20.0098 10.0441 19.9745 10.0963 19.9301 10.14L18.6301 11.31L17.8701 10.44L17.1001 9.57001L18.3301 8.47001ZM16.5301 10.1L17.1001 10.7L15.2301 12.4L14.6701 11.8L16.5301 10.1ZM8.3001 17.57L10.5701 15.5L11.1301 16.07L8.8301 18.13L8.3001 17.57ZM7.9001 18.1L9.3001 19.63L6.3001 21L7.9001 18.1ZM9.9001 19.27L9.3001 18.6L11.6001 16.53L12.2001 17.17L9.9001 19.27ZM17.1001 21.13L16.2601 20.3L18.2001 18.4C18.231 18.3691 18.2554 18.3325 18.2721 18.2922C18.2888 18.2519 18.2974 18.2087 18.2974 18.165C18.2974 18.1214 18.2888 18.0781 18.2721 18.0378C18.2554 17.9975 18.231 17.9609 18.2001 17.93C18.1692 17.8991 18.1326 17.8747 18.0923 17.858C18.052 17.8413 18.0087 17.8327 17.9651 17.8327C17.9215 17.8327 17.8782 17.8413 17.8379 17.858C17.7976 17.8747 17.761 17.8991 17.7301 17.93L15.8001 19.83L14.9301 19L16.0001 17.93C16.0309 17.9002 16.0555 17.8644 16.0722 17.8249C16.089 17.7854 16.0976 17.7429 16.0976 17.7C16.0976 17.6571 16.089 17.6146 16.0722 17.5751C16.0555 17.5356 16.0309 17.4998 16.0001 17.47C15.9701 17.4376 15.9338 17.4117 15.8934 17.394C15.8529 17.3763 15.8092 17.3672 15.7651 17.3672C15.721 17.3672 15.6773 17.3763 15.6368 17.394C15.5964 17.4117 15.5601 17.4376 15.5301 17.47L14.4701 18.53L13.6701 17.7L15.6001 15.8C15.6624 15.7377 15.6974 15.6532 15.6974 15.565C15.6974 15.4769 15.6624 15.3923 15.6001 15.33C15.5378 15.2677 15.4532 15.2327 15.3651 15.2327C15.277 15.2327 15.1924 15.2677 15.1301 15.33L13.2001 17.23L12.4001 16.4L13.4701 15.33C13.5009 15.3002 13.5255 15.2644 13.5422 15.2249C13.559 15.1854 13.5676 15.1429 13.5676 15.1C13.5676 15.0571 13.559 15.0146 13.5422 14.9751C13.5255 14.9356 13.5009 14.8998 13.4701 14.87C13.4401 14.8376 13.4038 14.8117 13.3633 14.794C13.3229 14.7763 13.2792 14.7672 13.2351 14.7672C13.191 14.7672 13.1473 14.7763 13.1068 14.794C13.0664 14.8117 13.0301 14.8376 13.0001 14.87L11.9301 15.93L11.1301 15.1L13.0701 13.2C13.101 13.1691 13.1254 13.1325 13.1421 13.0922C13.1588 13.0519 13.1674 13.0087 13.1674 12.965C13.1674 12.9214 13.1588 12.8781 13.1421 12.8378C13.1254 12.7975 13.101 12.7609 13.0701 12.73C13.0392 12.6991 13.0026 12.6747 12.9623 12.658C12.922 12.6413 12.8787 12.6327 12.8351 12.6327C12.7915 12.6327 12.7482 12.6413 12.7079 12.658C12.6676 12.6747 12.631 12.6991 12.6001 12.73L10.6701 14.63L9.8701 13.8L10.9301 12.73C10.9751 12.6664 10.9961 12.589 10.9895 12.5114C10.983 12.4339 10.9491 12.3611 10.8941 12.306C10.839 12.251 10.7663 12.2172 10.6887 12.2106C10.6111 12.204 10.5337 12.225 10.4701 12.27L9.3301 13.33L8.5301 12.5L10.4701 10.6C10.5324 10.5377 10.5674 10.4532 10.5674 10.365C10.5674 10.2769 10.5324 10.1923 10.4701 10.13C10.4078 10.0677 10.3232 10.0327 10.2351 10.0327C10.147 10.0327 10.0624 10.0677 10.0001 10.13L8.0701 12L7.2301 11.14L10.2301 8.20001L16.0001 14.17L20.0001 18.23L17.1001 21.13Z" fill="#87888C"/>
<path d="M1.93006 9.06998H7.17006C7.21465 9.07147 7.25906 9.06361 7.30044 9.04691C7.34182 9.03021 7.37924 9.00505 7.41032 8.97303C7.4414 8.94102 7.46543 8.90285 7.48089 8.861C7.49634 8.81914 7.50287 8.77451 7.50006 8.72998C7.50301 8.68588 7.49649 8.64167 7.48095 8.60029C7.46541 8.55892 7.4412 8.52134 7.40995 8.49009C7.3787 8.45884 7.34113 8.43463 7.29975 8.41909C7.25838 8.40355 7.21416 8.39703 7.17006 8.39998H1.93006C1.88596 8.39703 1.84174 8.40355 1.80036 8.41909C1.75899 8.43463 1.72141 8.45884 1.69016 8.49009C1.65891 8.52134 1.6347 8.55892 1.61916 8.60029C1.60362 8.64167 1.59711 8.68588 1.60006 8.72998C1.6046 8.81699 1.64055 8.8994 1.70124 8.96193C1.76192 9.02445 1.84322 9.06284 1.93006 9.06998V9.06998Z" fill="#87888C"/>
<path d="M1.93 11.7H5.5C5.5441 11.703 5.58832 11.6964 5.62969 11.6809C5.67107 11.6654 5.70864 11.6411 5.73989 11.6099C5.77115 11.5786 5.79535 11.5411 5.81089 11.4997C5.82644 11.4583 5.83295 11.4141 5.83 11.37C5.83746 11.3231 5.8344 11.2752 5.82105 11.2297C5.8077 11.1841 5.78438 11.1421 5.75279 11.1067C5.7212 11.0713 5.68213 11.0433 5.63841 11.0249C5.59469 11.0064 5.54741 10.9979 5.5 11H1.93C1.88541 10.9985 1.84099 11.0064 1.79962 11.0231C1.75824 11.0398 1.72081 11.0649 1.68974 11.097C1.65866 11.129 1.63462 11.1671 1.61917 11.209C1.60372 11.2508 1.59719 11.2955 1.6 11.34C1.59582 11.3858 1.60125 11.4319 1.61596 11.4755C1.63066 11.5191 1.6543 11.5591 1.68537 11.593C1.71644 11.6269 1.75425 11.6539 1.79638 11.6723C1.83851 11.6908 1.88402 11.7002 1.93 11.7V11.7Z" fill="#87888C"/>
<path d="M1.93006 14.37H7.17006C7.21747 14.3721 7.26475 14.3636 7.30847 14.3451C7.35219 14.3267 7.39126 14.2987 7.42285 14.2633C7.45444 14.2279 7.47775 14.1859 7.49111 14.1403C7.50446 14.0948 7.50752 14.0469 7.50006 14C7.50301 13.9559 7.49649 13.9117 7.48095 13.8703C7.46541 13.8289 7.4412 13.7914 7.40995 13.7601C7.3787 13.7289 7.34113 13.7046 7.29975 13.6891C7.25838 13.6736 7.21416 13.6671 7.17006 13.67H1.93006C1.88596 13.6671 1.84174 13.6736 1.80036 13.6891C1.75899 13.7046 1.72141 13.7289 1.69016 13.7601C1.65891 13.7914 1.6347 13.8289 1.61916 13.8703C1.60362 13.9117 1.59711 13.9559 1.60006 14C1.59718 14.0922 1.62981 14.182 1.69121 14.2509C1.75262 14.3197 1.83812 14.3624 1.93006 14.37V14.37Z" fill="#87888C"/>
</svg>
