<svg width="22" height="22" viewBox="0 0 22 22" fill="none" xmlns="http://www.w3.org/2000/svg">
<path d="M20.9003 2.3303H10.5303L9.5303 0.800303C9.32038 0.545767 9.0559 0.341705 8.75644 0.203225C8.45697 0.0647449 8.1302 -0.00460721 7.8003 0.00030319H0.700303C0.607627 -0.00246513 0.515364 0.0137482 0.429184 0.0479467C0.343004 0.0821452 0.264728 0.133606 0.199167 0.199167C0.133606 0.264728 0.0821452 0.343004 0.0479467 0.429184C0.0137482 0.515364 -0.00246513 0.607627 0.00030319 0.700303V15.8303C0.0015998 15.973 0.0311575 16.114 0.0872686 16.2452C0.14338 16.3764 0.224932 16.4952 0.327213 16.5946C0.429494 16.6941 0.550477 16.7724 0.683171 16.8248C0.815865 16.8773 0.957639 16.903 1.1003 16.9003H7.4703C7.5144 16.9033 7.55862 16.8967 7.6 16.8812C7.64137 16.8657 7.67895 16.8415 7.7102 16.8102C7.74145 16.7789 7.76566 16.7414 7.7812 16.7C7.79674 16.6586 7.80325 16.6144 7.8003 16.5703C7.80312 16.5258 7.79659 16.4811 7.78113 16.4393C7.76568 16.3974 7.74164 16.3593 7.71057 16.3273C7.67949 16.2952 7.64206 16.2701 7.60069 16.2534C7.55931 16.2367 7.5149 16.2288 7.4703 16.2303H1.1003C1.04563 16.233 0.990981 16.2247 0.939566 16.2059C0.888152 16.1872 0.841017 16.1583 0.80094 16.121C0.760864 16.0837 0.728658 16.0388 0.706222 15.9889C0.683785 15.9389 0.671572 15.885 0.670303 15.8303V6.2303H21.3303V15.8303C21.329 15.885 21.3168 15.9389 21.2944 15.9889C21.2719 16.0388 21.2397 16.0837 21.1997 16.121C21.1596 16.1583 21.1125 16.1872 21.061 16.2059C21.0096 16.2247 20.955 16.233 20.9003 16.2303H20.3003C20.2557 16.2288 20.2113 16.2367 20.1699 16.2534C20.1285 16.2701 20.0911 16.2952 20.06 16.3273C20.029 16.3593 20.0049 16.3974 19.9895 16.4393C19.974 16.4811 19.9675 16.5258 19.9703 16.5703C19.9674 16.6144 19.9739 16.6586 19.9894 16.7C20.0049 16.7414 20.0292 16.7789 20.0604 16.8102C20.0917 16.8415 20.1292 16.8657 20.1706 16.8812C20.212 16.8967 20.2562 16.9033 20.3003 16.9003H20.9003C21.043 16.903 21.1847 16.8773 21.3174 16.8248C21.4501 16.7724 21.5711 16.6941 21.6734 16.5946C21.7757 16.4952 21.8572 16.3764 21.9133 16.2452C21.9694 16.114 21.999 15.973 22.0003 15.8303V3.4303C21.9755 3.14689 21.8517 2.88127 21.6505 2.6801C21.4493 2.47894 21.1837 2.35508 20.9003 2.3303V2.3303ZM0.670303 5.5703V0.700303H7.8003C8.02494 0.689014 8.24925 0.728048 8.45687 0.814554C8.66448 0.90106 8.85015 1.03285 9.0003 1.2003L10.1003 2.8703C10.1276 2.91369 10.1663 2.94876 10.2121 2.97169C10.258 2.99461 10.3092 3.00451 10.3603 3.0003H20.8703C20.9729 3.01838 21.0681 3.06576 21.1444 3.13674C21.2207 3.20771 21.2749 3.29925 21.3003 3.4003V5.5703H0.670303Z" fill="#F46E27"/>
<path d="M16.7703 13.9303L20.3703 10.6703C20.4832 10.5763 20.574 10.4586 20.6362 10.3255C20.6984 10.1924 20.7306 10.0472 20.7303 9.90031C20.7378 9.60484 20.6303 9.31801 20.4303 9.10031L19.5003 8.10031C19.4029 7.98711 19.2838 7.89454 19.15 7.82806C19.0162 7.76158 18.8705 7.72253 18.7214 7.71321C18.5723 7.70389 18.4229 7.72449 18.2819 7.7738C18.1409 7.82311 18.0111 7.90012 17.9003 8.00031L16.3703 9.33031L14.2103 11.3303L10.4703 7.53031C10.4405 7.49947 10.4048 7.47494 10.3653 7.45819C10.3257 7.44143 10.2833 7.4328 10.2403 7.4328C10.1974 7.4328 10.1549 7.44143 10.1154 7.45819C10.0759 7.47494 10.0402 7.49947 10.0103 7.53031L6.50034 10.9303C6.46729 10.9607 6.44123 10.9979 6.42397 11.0393C6.4067 11.0808 6.39864 11.1255 6.40034 11.1703C6.39874 11.2137 6.40689 11.2569 6.42419 11.2967C6.4415 11.3365 6.46752 11.3719 6.50034 11.4003L10.1003 15.0003L7.63034 17.3003L7.57034 17.3703L5.23034 21.5003C5.19201 21.56 5.17163 21.6294 5.17163 21.7003C5.17163 21.7712 5.19201 21.8407 5.23034 21.9003C5.2751 21.9488 5.33414 21.9817 5.39888 21.9943C5.46362 22.0068 5.5307 21.9985 5.59034 21.9703L9.89034 20.0703C9.94223 20.0593 9.99043 20.0352 10.0303 20.0003L12.6303 17.6303L16.7603 21.8303C16.8225 21.8901 16.9042 21.9256 16.9903 21.9303C17.0352 21.932 17.0799 21.924 17.1213 21.9067C17.1628 21.8894 17.2 21.8634 17.2303 21.8303L20.6903 18.4303C20.7225 18.4013 20.7482 18.3658 20.7658 18.3261C20.7834 18.2865 20.7925 18.2437 20.7925 18.2003C20.7925 18.157 20.7834 18.1141 20.7658 18.0745C20.7482 18.0349 20.7225 17.9994 20.6903 17.9703L16.7703 13.9303ZM15.7003 12.8703L17.5703 11.2003L18.1303 11.8003L16.3003 13.4703L15.7003 12.8703ZM18.3303 8.47031C18.3741 8.42587 18.4262 8.39057 18.4837 8.36648C18.5413 8.34238 18.603 8.32997 18.6653 8.32997C18.7277 8.32997 18.7894 8.34238 18.8469 8.36648C18.9045 8.39057 18.9566 8.42587 19.0003 8.47031L19.9303 9.47031C19.9748 9.51405 20.0101 9.5662 20.0342 9.62371C20.0583 9.68122 20.0707 9.74296 20.0707 9.80531C20.0707 9.86767 20.0583 9.9294 20.0342 9.98692C20.0101 10.0444 19.9748 10.0966 19.9303 10.1403L18.6303 11.3103L17.8703 10.4403L17.1003 9.57031L18.3303 8.47031ZM16.5303 10.1003L17.1003 10.7003L15.2303 12.4003L14.6703 11.8003L16.5303 10.1003ZM8.30034 17.5703L10.5703 15.5003L11.1303 16.0703L8.83034 18.1303L8.30034 17.5703ZM7.90034 18.1003L9.30034 19.6303L6.30034 21.0003L7.90034 18.1003ZM9.90034 19.2703L9.30034 18.6003L11.6003 16.5303L12.2003 17.1703L9.90034 19.2703ZM17.1003 21.1303L16.2603 20.3003L18.2003 18.4003C18.2312 18.3695 18.2557 18.3328 18.2724 18.2925C18.2891 18.2522 18.2977 18.209 18.2977 18.1653C18.2977 18.1217 18.2891 18.0785 18.2724 18.0381C18.2557 17.9978 18.2312 17.9612 18.2003 17.9303C18.1695 17.8995 18.1328 17.875 18.0925 17.8583C18.0522 17.8416 18.009 17.833 17.9653 17.833C17.9217 17.833 17.8785 17.8416 17.8382 17.8583C17.7978 17.875 17.7612 17.8995 17.7303 17.9303L15.8003 19.8303L14.9303 19.0003L16.0003 17.9303C16.0312 17.9005 16.0557 17.8647 16.0725 17.8252C16.0892 17.7857 16.0979 17.7432 16.0979 17.7003C16.0979 17.6574 16.0892 17.6149 16.0725 17.5754C16.0557 17.5359 16.0312 17.5002 16.0003 17.4703C15.9704 17.4379 15.934 17.412 15.8936 17.3943C15.8532 17.3766 15.8095 17.3675 15.7653 17.3675C15.7212 17.3675 15.6775 17.3766 15.6371 17.3943C15.5967 17.412 15.5603 17.4379 15.5303 17.4703L14.4703 18.5303L13.6703 17.7003L15.6003 15.8003C15.6627 15.738 15.6977 15.6535 15.6977 15.5653C15.6977 15.4772 15.6627 15.3926 15.6003 15.3303C15.538 15.268 15.4535 15.233 15.3653 15.233C15.2772 15.233 15.1927 15.268 15.1303 15.3303L13.2003 17.2303L12.4003 16.4003L13.4703 15.3303C13.5012 15.3005 13.5257 15.2647 13.5425 15.2252C13.5592 15.1857 13.5679 15.1432 13.5679 15.1003C13.5679 15.0574 13.5592 15.0149 13.5425 14.9754C13.5257 14.9359 13.5012 14.9002 13.4703 14.8703C13.4404 14.8379 13.404 14.812 13.3636 14.7943C13.3232 14.7766 13.2795 14.7675 13.2353 14.7675C13.1912 14.7675 13.1475 14.7766 13.1071 14.7943C13.0666 14.812 13.0303 14.8379 13.0003 14.8703L11.9303 15.9303L11.1303 15.1003L13.0703 13.2003C13.1012 13.1695 13.1257 13.1328 13.1424 13.0925C13.1591 13.0522 13.1677 13.009 13.1677 12.9653C13.1677 12.9217 13.1591 12.8785 13.1424 12.8381C13.1257 12.7978 13.1012 12.7612 13.0703 12.7303C13.0395 12.6995 13.0028 12.675 12.9625 12.6583C12.9222 12.6416 12.879 12.633 12.8353 12.633C12.7917 12.633 12.7485 12.6416 12.7082 12.6583C12.6678 12.675 12.6312 12.6995 12.6003 12.7303L10.6703 14.6303L9.87034 13.8003L10.9303 12.7303C10.9753 12.6668 10.9964 12.5893 10.9898 12.5117C10.9832 12.4342 10.9494 12.3614 10.8943 12.3063C10.8393 12.2513 10.7665 12.2175 10.6889 12.2109C10.6113 12.2043 10.5339 12.2253 10.4703 12.2703L9.33034 13.3303L8.53034 12.5003L10.4703 10.6003C10.5327 10.538 10.5677 10.4535 10.5677 10.3653C10.5677 10.2772 10.5327 10.1926 10.4703 10.1303C10.408 10.068 10.3235 10.033 10.2353 10.033C10.1472 10.033 10.0627 10.068 10.0003 10.1303L8.07034 12.0003L7.23034 11.1403L10.2303 8.20031L16.0003 14.1703L20.0003 18.2303L17.1003 21.1303Z" fill="#F46E27"/>
<path d="M1.9303 9.07029H7.1703C7.21489 9.07177 7.25931 9.06391 7.30068 9.04722C7.34206 9.03052 7.37949 9.00536 7.41056 8.97334C7.44164 8.94132 7.46568 8.90316 7.48113 8.8613C7.49658 8.81944 7.50311 8.77482 7.5003 8.73029C7.50325 8.68619 7.49674 8.64197 7.4812 8.6006C7.46566 8.55922 7.44145 8.52165 7.4102 8.49039C7.37894 8.45914 7.34137 8.43493 7.29999 8.41939C7.25862 8.40385 7.2144 8.39734 7.1703 8.40029H1.9303C1.8862 8.39734 1.84198 8.40385 1.80061 8.41939C1.75923 8.43493 1.72166 8.45914 1.69041 8.49039C1.65915 8.52165 1.63495 8.55922 1.61941 8.6006C1.60386 8.64197 1.59735 8.68619 1.6003 8.73029C1.60485 8.8173 1.6408 8.89971 1.70148 8.96223C1.76216 9.02475 1.84346 9.06315 1.9303 9.07029V9.07029Z" fill="#F46E27"/>
<path d="M1.93024 11.7003H5.50024C5.54434 11.7033 5.58856 11.6967 5.62994 11.6812C5.67131 11.6657 5.70889 11.6415 5.74014 11.6102C5.77139 11.5789 5.7956 11.5414 5.81114 11.5C5.82668 11.4586 5.83319 11.4144 5.83024 11.3703C5.8377 11.3234 5.83465 11.2755 5.82129 11.23C5.80794 11.1844 5.78463 11.1424 5.75304 11.107C5.72145 11.0716 5.68238 11.0436 5.63866 11.0252C5.59493 11.0067 5.54766 10.9982 5.50024 11.0003H1.93024C1.88565 10.9988 1.84124 11.0067 1.79986 11.0234C1.75848 11.0401 1.72106 11.0652 1.68998 11.0973C1.65891 11.1293 1.63487 11.1674 1.61941 11.2093C1.60396 11.2511 1.59743 11.2958 1.60024 11.3403C1.59606 11.3861 1.6015 11.4323 1.6162 11.4758C1.6309 11.5194 1.65455 11.5594 1.68562 11.5933C1.71669 11.6272 1.7545 11.6542 1.79662 11.6726C1.83875 11.6911 1.88426 11.7005 1.93024 11.7003V11.7003Z" fill="#F46E27"/>
<path d="M1.9303 14.3703H7.1703C7.21771 14.3724 7.26499 14.3639 7.30871 14.3454C7.35244 14.327 7.39151 14.299 7.42309 14.2636C7.45468 14.2282 7.478 14.1862 7.49135 14.1407C7.5047 14.0951 7.50776 14.0472 7.5003 14.0003C7.50325 13.9562 7.49674 13.912 7.4812 13.8706C7.46566 13.8292 7.44145 13.7917 7.4102 13.7604C7.37894 13.7292 7.34137 13.705 7.29999 13.6894C7.25862 13.6739 7.2144 13.6674 7.1703 13.6703H1.9303C1.8862 13.6674 1.84198 13.6739 1.80061 13.6894C1.75923 13.705 1.72166 13.7292 1.69041 13.7604C1.65915 13.7917 1.63495 13.8292 1.61941 13.8706C1.60386 13.912 1.59735 13.9562 1.6003 14.0003C1.59742 14.0925 1.63005 14.1823 1.69146 14.2512C1.75287 14.32 1.83836 14.3627 1.9303 14.3703V14.3703Z" fill="#F46E27"/>
</svg>
