<svg width="18" height="21" viewBox="0 0 18 21" fill="none" xmlns="http://www.w3.org/2000/svg">
<path d="M2 20.4116H16C17.103 20.4116 18 19.5146 18 18.4116V3.41162C18 2.30862 17.103 1.41162 16 1.41162H14C14 1.1464 13.8946 0.892051 13.7071 0.704514C13.5196 0.516978 13.2652 0.411621 13 0.411621H5C4.73478 0.411621 4.48043 0.516978 4.29289 0.704514C4.10536 0.892051 4 1.1464 4 1.41162H2C0.897 1.41162 0 2.30862 0 3.41162V18.4116C0 19.5146 0.897 20.4116 2 20.4116ZM2 3.41162H4V5.41162H14V3.41162H16V18.4116H2V3.41162Z" fill="#87888C"/>
<path d="M7.99997 11.9977L6.20697 10.2047L4.79297 11.6187L7.99997 14.8257L13.207 9.61865L11.793 8.20465L7.99997 11.9977Z" fill="#87888C"/>
</svg>
