<svg width="25" height="25" viewBox="0 0 25 25" fill="none" xmlns="http://www.w3.org/2000/svg">
<path d="M7.8125 13.5417C6.8854 13.5417 5.97912 13.2668 5.20826 12.7517C4.43741 12.2366 3.8366 11.5045 3.48181 10.648C3.12703 9.79147 3.0342 8.84897 3.21507 7.93968C3.39594 7.0304 3.84238 6.19516 4.49794 5.53961C5.1535 4.88405 5.98873 4.43761 6.89801 4.25674C7.8073 4.07587 8.7498 4.1687 9.60633 4.52348C10.4629 4.87827 11.1949 5.47908 11.71 6.24993C12.2251 7.02079 12.5 7.92707 12.5 8.85417C12.4986 10.0969 12.0043 11.2884 11.1255 12.1672C10.2468 13.046 9.05528 13.5403 7.8125 13.5417V13.5417ZM14.5833 25H1.04167C0.765399 25 0.500447 24.8903 0.305097 24.6949C0.109747 24.4996 0 24.2346 0 23.9583V23.4375C0 21.3655 0.8231 19.3784 2.28823 17.9132C3.75336 16.4481 5.7405 15.625 7.8125 15.625C9.8845 15.625 11.8716 16.4481 13.3368 17.9132C14.8019 19.3784 15.625 21.3655 15.625 23.4375V23.9583C15.625 24.2346 15.5153 24.4996 15.3199 24.6949C15.1246 24.8903 14.8596 25 14.5833 25ZM18.2292 9.375C17.3021 9.375 16.3958 9.10009 15.6249 8.58502C14.8541 8.06995 14.2533 7.33786 13.8985 6.48133C13.5437 5.6248 13.4509 4.6823 13.6317 3.77302C13.8126 2.86373 14.259 2.0285 14.9146 1.37294C15.5702 0.717381 16.4054 0.270939 17.3147 0.0900711C18.224 -0.0907971 19.1665 0.00203103 20.023 0.356817C20.8795 0.711603 21.6116 1.31241 22.1267 2.08327C22.6417 2.85412 22.9167 3.7604 22.9167 4.6875C22.9153 5.93028 22.421 7.12176 21.5422 8.00054C20.6634 8.87932 19.4719 9.37362 18.2292 9.375V9.375ZM16.749 11.4802C15.7788 11.6104 14.8459 11.9395 14.0089 12.4469C13.1718 12.9544 12.4485 13.6292 11.8844 14.4292C14.2186 15.4892 16.0527 17.4107 17.0031 19.7917H23.9583C24.2346 19.7917 24.4996 19.6819 24.6949 19.4866C24.8903 19.2912 25 19.0263 25 18.75V18.7104C24.9989 17.6721 24.7764 16.6459 24.3471 15.7005C23.9179 14.755 23.292 13.912 22.5111 13.2277C21.7301 12.5434 20.8122 12.0335 19.8186 11.7322C18.8249 11.4308 17.7784 11.3449 16.749 11.4802V11.4802Z" fill="#F46E27"/>
</svg>
