<svg xmlns="http://www.w3.org/2000/svg" viewBox="0 0 26.25 37.45"><defs><style>.cls-1{fill:#f56e28;fill-rule:evenodd;}</style></defs><g id="Camada_2" data-name="Camada 2"><g id="Camada_1-2" data-name="Camada 1"><g id="Camada_1-3" data-name="Camada_1"><path class="cls-1" d="M23.92,7.52A.33.33,0,0,0,24,7.11,26.21,26.21,0,0,0,20,.3.9.9,0,0,0,18.74.19a.82.82,0,0,0-.35.7c0,8.61-3.2,14.2-8.56,18.28a.05.05,0,0,0-.06,0,48.36,48.36,0,0,0,2.1,10.89c0,.06.06.06.12.06s0-.06,0-.12A24.9,24.9,0,0,1,23.92,7.52Zm1.75,6.06A21.17,21.17,0,0,0,13.5,31.33h-.23A23.48,23.48,0,0,1,24.21,8.51a.37.37,0,0,1,.47.06c0,.06.06.06.06.12a30.52,30.52,0,0,1,1.16,4.54.28.28,0,0,1-.12.35ZM8.78,19.86c.06-.05.12,0,.18.06a50.15,50.15,0,0,0,2,10.13c.06.06-.06.18-.18.12A30.23,30.23,0,0,0,1,25.8a1,1,0,0,1-.17-2A58,58,0,0,0,8.78,19.86Zm16.77,1.05a.33.33,0,0,1,.41.24v.17c-.18,1.16-.35,2.33-.64,3.49-.06.12-.12.24-.23.24a18,18,0,0,0-1.75.46,12.66,12.66,0,0,0-7.63,7.8.83.83,0,0,0-.35-.05A16.06,16.06,0,0,1,25.55,20.91Zm-1.1,5.3a.33.33,0,0,1,.4.23v.18a28.86,28.86,0,0,1-6.23,10.54.84.84,0,0,1-1.22.05.55.55,0,0,1-.17-.23c-.3-.52-.64-1-1-1.57a12,12,0,0,1,7.51-9A3.14,3.14,0,0,0,24.45,26.21ZM26.08,15c.05.94.17,1.93.17,2.92a13.82,13.82,0,0,1-.06,1.57c0,.11-.11.23-.23.35s-.47.17-.7.23a16.74,16.74,0,0,0-10.6,12.23.44.44,0,0,1-.23-.06A20.29,20.29,0,0,1,25.61,14.68c.12-.06.35-.06.41.12a.46.46,0,0,1,.06.17Z"/></g></g></g></svg>