<svg width="142" height="65" viewBox="0 0 142 65" fill="none" xmlns="http://www.w3.org/2000/svg">
<path fill-rule="evenodd" clip-rule="evenodd" d="M71.8949 10.0295C72.0502 9.95183 72.1278 9.71894 72.0502 9.48606C70.7306 6.22575 68.8675 3.1207 66.6163 0.403772C66.2282 -0.0619876 65.452 -0.139624 64.9862 0.248509C64.6757 0.481389 64.5204 0.791904 64.5204 1.18004C64.5204 12.6688 60.251 20.1209 53.1094 25.5548C53.0317 25.5548 53.0317 25.6324 53.0317 25.6324C53.4198 30.6005 54.3514 35.4909 55.8263 40.1485C55.8263 40.2262 55.9039 40.2262 55.9815 40.2262C56.0591 40.2262 56.0592 40.1485 56.0592 40.0709C55.4381 27.9612 61.493 16.3172 71.8949 10.0295ZM74.2237 18.1026C64.9086 22.4497 58.6985 31.532 57.9998 41.7787H57.6893C56.2144 29.669 61.8811 17.7921 72.2831 11.3491C72.4383 11.1938 72.7489 11.2715 72.9041 11.4267C72.9041 11.5043 72.9817 11.5044 72.9817 11.582C73.6804 13.5226 74.1461 15.6186 74.5343 17.6368C74.6119 17.7921 74.5343 18.025 74.379 18.1026C74.3014 18.1026 74.2237 18.1026 74.2237 18.1026ZM51.712 26.4863C51.7897 26.4086 51.8673 26.4863 51.945 26.5639C52.3331 31.1439 53.2646 35.6462 54.5842 40.0709C54.6619 40.1485 54.5066 40.3038 54.3514 40.2262C50.3924 37.5092 45.9677 35.5686 41.3101 34.4042C39.4471 34.016 39.7576 32.0754 41.0773 31.7649C44.3376 30.3676 49.1504 28.194 51.712 26.4863ZM74.0685 27.8836C74.3014 27.8059 74.5342 27.9612 74.6119 28.1941C74.6119 28.2717 74.6119 28.3493 74.6119 28.4269C74.379 29.9795 74.1461 31.532 73.758 33.0845C73.6804 33.2398 73.6027 33.395 73.4475 33.395C72.6712 33.5503 71.8949 33.7832 71.1187 34.016C66.3058 35.8015 62.5798 39.6051 60.9496 44.418C60.6391 44.3404 60.7944 44.3404 60.4839 44.3404C61.8035 36.8106 66.9269 30.5229 74.0685 27.8836ZM72.5936 34.9476C72.8265 34.8699 73.0594 35.0252 73.137 35.2581C73.137 35.3357 73.137 35.4133 73.137 35.4909C71.4292 40.6919 68.557 45.5048 64.8309 49.5413C64.3652 50.0071 63.6666 50.0847 63.2008 49.619C63.1232 49.5414 63.0455 49.4637 62.9679 49.3085C62.5798 48.6098 62.114 47.9112 61.6483 47.2126C62.6574 41.7011 66.4611 37.1987 71.6621 35.1804C71.9726 35.1804 72.2831 35.0252 72.5936 34.9476ZM74.7671 19.9656C74.8448 21.2077 75 22.5273 75 23.847C75 24.5456 75 25.2443 74.9224 25.9429C74.9224 26.0981 74.7671 26.2534 74.6119 26.4087C74.3014 26.4863 73.9909 26.6415 73.6804 26.7192C66.4611 29.3585 61.1825 35.491 59.5524 43.0207C59.4747 43.0207 59.3971 43.0207 59.2418 42.9431C59.5523 33.0069 65.2191 24.0798 74.1461 19.5775C74.3014 19.4999 74.6119 19.4999 74.6895 19.7328C74.7672 19.888 74.7671 19.9656 74.7671 19.9656Z" fill="#F56E28"/>
</svg>
