<svg width="25" height="26" viewBox="0 0 25 26" fill="none" xmlns="http://www.w3.org/2000/svg">
<g clip-path="url(#clip0_41_21)">
<path d="M12.5 12.9116C13.7361 12.9116 14.9445 12.5451 15.9723 11.8583C17.0001 11.1715 17.8012 10.1954 18.2742 9.0534C18.7473 7.91136 18.8711 6.65469 18.6299 5.44231C18.3888 4.22993 17.7935 3.11628 16.9194 2.24221C16.0453 1.36813 14.9317 0.772874 13.7193 0.531716C12.5069 0.290558 11.2503 0.414329 10.1082 0.887377C8.96619 1.36042 7.99007 2.1615 7.30331 3.18931C6.61656 4.21712 6.25 5.42549 6.25 6.66162C6.25165 8.31872 6.91067 9.90747 8.08241 11.0792C9.25415 12.251 10.8429 12.91 12.5 12.9116ZM12.5 2.49496C13.3241 2.49496 14.1297 2.73933 14.8149 3.19717C15.5001 3.65501 16.0341 4.30575 16.3495 5.06711C16.6649 5.82847 16.7474 6.66625 16.5866 7.4745C16.4258 8.28275 16.029 9.02518 15.4463 9.6079C14.8636 10.1906 14.1211 10.5875 13.3129 10.7482C12.5046 10.909 11.6668 10.8265 10.9055 10.5111C10.1441 10.1958 9.49338 9.6617 9.03554 8.9765C8.5777 8.29129 8.33333 7.48571 8.33333 6.66162C8.33333 5.55656 8.77232 4.49675 9.55372 3.71535C10.3351 2.93394 11.3949 2.49496 12.5 2.49496Z" fill="#87888C"/>
<path d="M12.5 14.9949C10.0144 14.9977 7.63147 15.9863 5.87392 17.7439C4.11636 19.5014 3.12776 21.8844 3.125 24.37C3.125 24.6462 3.23475 24.9112 3.4301 25.1065C3.62545 25.3019 3.8904 25.4116 4.16667 25.4116C4.44293 25.4116 4.70789 25.3019 4.90324 25.1065C5.09859 24.9112 5.20833 24.6462 5.20833 24.37C5.20833 22.4361 5.97656 20.5814 7.34401 19.214C8.71147 17.8465 10.5661 17.0783 12.5 17.0783C14.4339 17.0783 16.2885 17.8465 17.656 19.214C19.0234 20.5814 19.7917 22.4361 19.7917 24.37C19.7917 24.6462 19.9014 24.9112 20.0968 25.1065C20.2921 25.3019 20.5571 25.4116 20.8333 25.4116C21.1096 25.4116 21.3746 25.3019 21.5699 25.1065C21.7653 24.9112 21.875 24.6462 21.875 24.37C21.8722 21.8844 20.8836 19.5014 19.1261 17.7439C17.3685 15.9863 14.9856 14.9977 12.5 14.9949Z" fill="#87888C"/>
</g>
<defs>
<clipPath id="clip0_41_21">
<rect width="25" height="25" fill="white" transform="translate(0 0.411621)"/>
</clipPath>
</defs>
</svg>
