<svg width="25" height="26" viewBox="0 0 25 26" fill="none" xmlns="http://www.w3.org/2000/svg">
<g clip-path="url(#clip0_31_92)">
<path d="M7.8125 13.9533C6.8854 13.9533 5.97912 13.6784 5.20826 13.1633C4.43741 12.6482 3.8366 11.9161 3.48181 11.0596C3.12703 10.2031 3.0342 9.26059 3.21507 8.3513C3.39594 7.44202 3.84238 6.60679 4.49794 5.95123C5.1535 5.29567 5.98873 4.84923 6.89801 4.66836C7.8073 4.48749 8.7498 4.58032 9.60633 4.9351C10.4629 5.28989 11.1949 5.8907 11.71 6.66155C12.2251 7.43241 12.5 8.33869 12.5 9.26579C12.4986 10.5086 12.0043 11.7001 11.1255 12.5788C10.2468 13.4576 9.05528 13.9519 7.8125 13.9533ZM7.8125 6.66162C7.29744 6.66162 6.79396 6.81436 6.3657 7.1005C5.93745 7.38665 5.60367 7.79337 5.40656 8.26922C5.20946 8.74507 5.15789 9.26868 5.25837 9.77384C5.35885 10.279 5.60688 10.743 5.97108 11.1072C6.33528 11.4714 6.79929 11.7194 7.30445 11.8199C7.80961 11.9204 8.33322 11.8688 8.80907 11.6717C9.28492 11.4746 9.69164 11.1408 9.97779 10.7126C10.2639 10.2843 10.4167 9.78085 10.4167 9.26579C10.4167 8.57512 10.1423 7.91274 9.65392 7.42437C9.16555 6.93599 8.50317 6.66162 7.8125 6.66162ZM15.625 24.37V23.8491C15.625 21.7771 14.8019 19.79 13.3368 18.3249C11.8716 16.8597 9.8845 16.0366 7.8125 16.0366C5.7405 16.0366 3.75336 16.8597 2.28823 18.3249C0.8231 19.79 0 21.7771 0 23.8491L0 24.37C0 24.6462 0.109747 24.9112 0.305097 25.1065C0.500448 25.3019 0.765399 25.4116 1.04167 25.4116C1.31793 25.4116 1.58289 25.3019 1.77824 25.1065C1.97359 24.9112 2.08333 24.6462 2.08333 24.37V23.8491C2.08333 22.3297 2.68694 20.8724 3.76137 19.798C4.83579 18.7236 6.29303 18.12 7.8125 18.12C9.33197 18.12 10.7892 18.7236 11.8636 19.798C12.9381 20.8724 13.5417 22.3297 13.5417 23.8491V24.37C13.5417 24.6462 13.6514 24.9112 13.8468 25.1065C14.0421 25.3019 14.3071 25.4116 14.5833 25.4116C14.8596 25.4116 15.1246 25.3019 15.3199 25.1065C15.5153 24.9112 15.625 24.6462 15.625 24.37ZM25 19.1616C25 17.754 24.5925 16.3765 23.8268 15.1953C23.0611 14.0142 21.9698 13.0799 20.6848 12.5053C19.3998 11.9307 17.976 11.7404 16.5852 11.9572C15.1943 12.174 13.896 12.7888 12.8469 13.7272C12.7435 13.8181 12.6592 13.9285 12.5987 14.0521C12.5383 14.1757 12.5029 14.3101 12.4947 14.4475C12.4864 14.5848 12.5055 14.7224 12.5508 14.8524C12.596 14.9823 12.6666 15.102 12.7584 15.2046C12.8502 15.3071 12.9614 15.3904 13.0855 15.4497C13.2097 15.509 13.3444 15.5431 13.4818 15.5501C13.6193 15.557 13.7567 15.5367 13.8862 15.4902C14.0158 15.4437 14.1348 15.3721 14.2365 15.2793C14.9859 14.6091 15.9133 14.1702 16.9067 14.0154C17.9001 13.8607 18.917 13.9968 19.8348 14.4072C20.7526 14.8177 21.5319 15.4851 22.0788 16.3287C22.6256 17.1723 22.9167 18.1562 22.9167 19.1616C22.9167 19.4379 23.0264 19.7028 23.2218 19.8982C23.4171 20.0935 23.6821 20.2033 23.9583 20.2033C24.2346 20.2033 24.4996 20.0935 24.6949 19.8982C24.8903 19.7028 25 19.4379 25 19.1616ZM18.2292 9.78662C17.3021 9.78662 16.3958 9.51171 15.6249 8.99664C14.8541 8.48157 14.2533 7.74948 13.8985 6.89295C13.5437 6.03642 13.4509 5.09392 13.6317 4.18464C13.8126 3.27535 14.259 2.44012 14.9146 1.78456C15.5702 1.129 16.4054 0.68256 17.3147 0.501692C18.224 0.320824 19.1665 0.413652 20.023 0.768438C20.8795 1.12322 21.6116 1.72403 22.1267 2.49489C22.6417 3.26574 22.9167 4.17202 22.9167 5.09912C22.9153 6.3419 22.421 7.53339 21.5422 8.41216C20.6634 9.29094 19.4719 9.78524 18.2292 9.78662ZM18.2292 2.49496C17.7141 2.49496 17.2106 2.64769 16.7824 2.93384C16.3541 3.21999 16.0203 3.6267 15.8232 4.10255C15.6261 4.5784 15.5746 5.10201 15.675 5.60717C15.7755 6.11233 16.0235 6.57635 16.3877 6.94055C16.7519 7.30475 17.216 7.55277 17.7211 7.65325C18.2263 7.75373 18.7499 7.70216 19.2257 7.50506C19.7016 7.30796 20.1083 6.97417 20.3945 6.54592C20.6806 6.11767 20.8333 5.61418 20.8333 5.09912C20.8333 4.40846 20.559 3.74608 20.0706 3.2577C19.5822 2.76932 18.9198 2.49496 18.2292 2.49496Z" fill="#87888C"/>
<g clip-path="url(#clip1_31_92)">
<path d="M7.8125 13.9533C6.8854 13.9533 5.97912 13.6784 5.20826 13.1633C4.43741 12.6482 3.8366 11.9161 3.48181 11.0596C3.12703 10.2031 3.0342 9.26059 3.21507 8.3513C3.39594 7.44202 3.84238 6.60679 4.49794 5.95123C5.1535 5.29567 5.98873 4.84923 6.89801 4.66836C7.8073 4.48749 8.7498 4.58032 9.60633 4.9351C10.4629 5.28989 11.1949 5.8907 11.71 6.66155C12.2251 7.43241 12.5 8.33869 12.5 9.26579C12.4986 10.5086 12.0043 11.7001 11.1255 12.5788C10.2468 13.4576 9.05528 13.9519 7.8125 13.9533ZM14.5833 25.4116H1.04167C0.765399 25.4116 0.500448 25.3019 0.305097 25.1065C0.109747 24.9112 0 24.6462 0 24.37V23.8491C0 21.7771 0.8231 19.79 2.28823 18.3249C3.75336 16.8597 5.7405 16.0366 7.8125 16.0366C9.8845 16.0366 11.8716 16.8597 13.3368 18.3249C14.8019 19.79 15.625 21.7771 15.625 23.8491V24.37C15.625 24.6462 15.5153 24.9112 15.3199 25.1065C15.1246 25.3019 14.8596 25.4116 14.5833 25.4116ZM18.2292 9.78662C17.3021 9.78662 16.3958 9.51171 15.6249 8.99664C14.8541 8.48157 14.2533 7.74948 13.8985 6.89295C13.5437 6.03642 13.4509 5.09392 13.6317 4.18464C13.8126 3.27535 14.259 2.44012 14.9146 1.78456C15.5702 1.129 16.4054 0.68256 17.3147 0.501692C18.224 0.320824 19.1665 0.413652 20.023 0.768438C20.8795 1.12322 21.6116 1.72403 22.1267 2.49489C22.6417 3.26574 22.9167 4.17202 22.9167 5.09912C22.9153 6.3419 22.421 7.53339 21.5422 8.41216C20.6634 9.29094 19.4719 9.78524 18.2292 9.78662ZM16.749 11.8918C15.7788 12.022 14.8459 12.3511 14.0089 12.8586C13.1718 13.366 12.4485 14.0408 11.8844 14.8408C14.2186 15.9009 16.0527 17.8223 17.0031 20.2033H23.9583C24.2346 20.2033 24.4996 20.0935 24.6949 19.8982C24.8903 19.7028 25 19.4379 25 19.1616V19.122C24.9989 18.0837 24.7764 17.0576 24.3471 16.1121C23.9179 15.1666 23.292 14.3236 22.5111 13.6393C21.7301 12.955 20.8122 12.4451 19.8186 12.1438C18.8249 11.8425 17.7784 11.7566 16.749 11.8918Z" fill="#87888C"/>
</g>
</g>
<defs>
<clipPath id="clip0_31_92">
<rect width="25" height="25" fill="white" transform="translate(0 0.411621)"/>
</clipPath>
<clipPath id="clip1_31_92">
<rect width="25" height="25" fill="white" transform="translate(0 0.411621)"/>
</clipPath>
</defs>
</svg>
