<svg width="20" height="20" viewBox="0 0 20 20" fill="none" xmlns="http://www.w3.org/2000/svg">
<g clip-path="url(#clip0_58_10)">
<path d="M6.25 10.8333C5.50832 10.8333 4.7833 10.6134 4.16661 10.2013C3.54993 9.78929 3.06928 9.20362 2.78545 8.5184C2.50162 7.83318 2.42736 7.07918 2.57206 6.35175C2.71675 5.62432 3.0739 4.95613 3.59835 4.43168C4.1228 3.90724 4.79098 3.55008 5.51841 3.40539C6.24584 3.2607 6.99984 3.33496 7.68506 3.61879C8.37029 3.90262 8.95596 4.38326 9.36801 4.99995C9.78007 5.61663 10 6.34166 10 7.08334C9.9989 8.07756 9.60345 9.03075 8.90043 9.73377C8.19741 10.4368 7.24422 10.8322 6.25 10.8333V10.8333ZM6.25 5C5.83796 5 5.43516 5.12219 5.09256 5.35111C4.74996 5.58003 4.48293 5.9054 4.32525 6.28608C4.16757 6.66676 4.12631 7.08565 4.2067 7.48977C4.28708 7.8939 4.4855 8.26512 4.77686 8.55647C5.06822 8.84783 5.43943 9.04625 5.84356 9.12664C6.24769 9.20702 6.66658 9.16577 7.04726 9.00808C7.42794 8.8504 7.75331 8.58338 7.98223 8.24077C8.21115 7.89817 8.33333 7.49538 8.33333 7.08334C8.33333 6.5308 8.11384 6.0009 7.72314 5.6102C7.33244 5.2195 6.80253 5 6.25 5ZM12.5 19.1667V18.75C12.5 17.0924 11.8415 15.5027 10.6694 14.3306C9.49731 13.1585 7.9076 12.5 6.25 12.5C4.5924 12.5 3.00268 13.1585 1.83058 14.3306C0.65848 15.5027 0 17.0924 0 18.75L0 19.1667C0 19.3877 0.0877974 19.5996 0.244078 19.7559C0.400358 19.9122 0.61232 20 0.833333 20C1.05435 20 1.26631 19.9122 1.42259 19.7559C1.57887 19.5996 1.66667 19.3877 1.66667 19.1667V18.75C1.66667 17.5344 2.14955 16.3686 3.00909 15.5091C3.86864 14.6496 5.03442 14.1667 6.25 14.1667C7.46558 14.1667 8.63136 14.6496 9.49091 15.5091C10.3504 16.3686 10.8333 17.5344 10.8333 18.75V19.1667C10.8333 19.3877 10.9211 19.5996 11.0774 19.7559C11.2337 19.9122 11.4457 20 11.6667 20C11.8877 20 12.0996 19.9122 12.2559 19.7559C12.4122 19.5996 12.5 19.3877 12.5 19.1667ZM20 15C20 13.8739 19.674 12.7719 19.0614 11.827C18.4489 10.8821 17.5759 10.1347 16.5479 9.67497C15.5199 9.21529 14.3808 9.06299 13.2681 9.23645C12.1555 9.40991 11.1168 9.90172 10.2775 10.6525C10.1948 10.7252 10.1273 10.8135 10.079 10.9124C10.0306 11.0113 10.0023 11.1188 9.99573 11.2287C9.98915 11.3386 10.0044 11.4487 10.0406 11.5526C10.0768 11.6566 10.1333 11.7523 10.2067 11.8343C10.2801 11.9164 10.3691 11.983 10.4684 12.0305C10.5678 12.0779 10.6755 12.1052 10.7855 12.1108C10.8954 12.1163 11.0054 12.1 11.109 12.0629C11.2126 12.0257 11.3078 11.9684 11.3892 11.8942C11.9887 11.358 12.7306 11.0069 13.5253 10.8831C14.3201 10.7593 15.1336 10.8681 15.8678 11.1965C16.6021 11.5249 17.2255 12.0588 17.663 12.7337C18.1005 13.4086 18.3333 14.1957 18.3333 15C18.3333 15.221 18.4211 15.433 18.5774 15.5893C18.7337 15.7455 18.9457 15.8333 19.1667 15.8333C19.3877 15.8333 19.5996 15.7455 19.7559 15.5893C19.9122 15.433 20 15.221 20 15ZM14.5833 7.5C13.8417 7.5 13.1166 7.28007 12.4999 6.86801C11.8833 6.45596 11.4026 5.87029 11.1188 5.18506C10.835 4.49984 10.7607 3.74584 10.9054 3.01841C11.0501 2.29098 11.4072 1.6228 11.9317 1.09835C12.4561 0.573904 13.1243 0.216751 13.8517 0.0720569C14.5792 -0.0726377 15.3332 0.00162482 16.0184 0.285453C16.7036 0.569282 17.2893 1.04993 17.7013 1.66661C18.1134 2.2833 18.3333 3.00832 18.3333 3.75C18.3322 4.74423 17.9368 5.69741 17.2338 6.40043C16.5307 7.10346 15.5776 7.4989 14.5833 7.5V7.5ZM14.5833 1.66667C14.1713 1.66667 13.7685 1.78885 13.4259 2.01777C13.0833 2.24669 12.8163 2.57207 12.6586 2.95274C12.5009 3.33342 12.4596 3.75231 12.54 4.15644C12.6204 4.56057 12.8188 4.93178 13.1102 5.22314C13.4016 5.5145 13.7728 5.71292 14.1769 5.7933C14.581 5.87369 14.9999 5.83243 15.3806 5.67475C15.7613 5.51707 16.0866 5.25004 16.3156 4.90744C16.5445 4.56484 16.6667 4.16205 16.6667 3.75C16.6667 3.19747 16.4472 2.66756 16.0565 2.27686C15.6658 1.88616 15.1359 1.66667 14.5833 1.66667V1.66667Z" fill="#87888C"/>
</g>
<defs>
<clipPath id="clip0_58_10">
<rect width="20" height="20" fill="white"/>
</clipPath>
</defs>
</svg>
