<svg width="18" height="18" viewBox="0 0 18 18" fill="none" xmlns="http://www.w3.org/2000/svg">
<g clip-path="url(#clip0_58_2)">
<path d="M9 11.2444C7.75737 11.2444 6.75 12.2518 6.75 13.4944V17.9944H11.25V13.4944C11.25 12.2518 10.2426 11.2444 9 11.2444Z" fill="#F46E27"/>
<path d="M12.75 13.4944V17.9944H15.75C16.9926 17.9944 18 16.987 18 15.7444V8.90367C18.0002 8.51403 17.8488 8.13962 17.5777 7.85967L11.2043 0.969396C10.0797 -0.247362 8.18167 -0.322069 6.96491 0.802509C6.90711 0.855946 6.85143 0.911599 6.79802 0.969396L0.435762 7.85742C0.156551 8.13853 -0.000105416 8.51871 5.32206e-08 8.91492V15.7444C5.32206e-08 16.987 1.00737 17.9944 2.25 17.9944H5.24999V13.4944C5.26402 11.4493 6.9152 9.77924 8.9088 9.73114C10.9691 9.68143 12.7343 11.3799 12.75 13.4944Z" fill="#F46E27"/>
<path d="M9 11.2444C7.75737 11.2444 6.75 12.2518 6.75 13.4944V17.9944H11.25V13.4944C11.25 12.2518 10.2426 11.2444 9 11.2444Z" fill="#F46E27"/>
</g>
<defs>
<clipPath id="clip0_58_2">
<rect width="18" height="18" fill="white"/>
</clipPath>
</defs>
</svg>
