<svg width="15" height="15" viewBox="0 0 15 15" fill="none" xmlns="http://www.w3.org/2000/svg">
<path d="M13.9453 6.94336H12.1553C11.9019 4.79883 10.2012 3.09814 8.05664 2.84473V1.05469C8.05664 0.990234 8.00391 0.9375 7.93945 0.9375H7.06055C6.99609 0.9375 6.94336 0.990234 6.94336 1.05469V2.84473C4.79883 3.09814 3.09814 4.79883 2.84473 6.94336H1.05469C0.990234 6.94336 0.9375 6.99609 0.9375 7.06055V7.93945C0.9375 8.00391 0.990234 8.05664 1.05469 8.05664H2.84473C3.09814 10.2012 4.79883 11.9019 6.94336 12.1553V13.9453C6.94336 14.0098 6.99609 14.0625 7.06055 14.0625H7.93945C8.00391 14.0625 8.05664 14.0098 8.05664 13.9453V12.1553C10.2012 11.9019 11.9019 10.2012 12.1553 8.05664H13.9453C14.0098 8.05664 14.0625 8.00391 14.0625 7.93945V7.06055C14.0625 6.99609 14.0098 6.94336 13.9453 6.94336ZM7.5 11.0742C5.52539 11.0742 3.92578 9.47461 3.92578 7.5C3.92578 5.52539 5.52539 3.92578 7.5 3.92578C9.47461 3.92578 11.0742 5.52539 11.0742 7.5C11.0742 9.47461 9.47461 11.0742 7.5 11.0742Z" fill="#F4F5FA"/>
<path d="M7.5 5.74219C7.02979 5.74219 6.59033 5.92383 6.25781 6.25781C5.92529 6.59033 5.74219 7.02979 5.74219 7.5C5.74219 7.97021 5.92529 8.40967 6.25781 8.74219C6.59033 9.07324 7.03125 9.25781 7.5 9.25781C7.96875 9.25781 8.40967 9.07471 8.74219 8.74219C9.07324 8.40967 9.25781 7.96875 9.25781 7.5C9.25781 7.03125 9.07471 6.59033 8.74219 6.25781C8.40967 5.92383 7.97021 5.74219 7.5 5.74219Z" fill="#F4F5FA"/>
</svg>
