<svg width="18" height="18" viewBox="0 0 18 18" fill="none" xmlns="http://www.w3.org/2000/svg">
<g clip-path="url(#clip0_58_8)">
<path d="M17.3408 6.80177L11.652 1.11227C10.9479 0.410264 9.99426 0.0160522 9.00001 0.0160522C8.00576 0.0160522 7.05208 0.410264 6.34801 1.11227L0.659259 6.80177C0.449578 7.01011 0.283336 7.258 0.170171 7.53106C0.0570054 7.80413 -0.0008328 8.09694 9.05961e-06 8.39252V15.7553C9.05961e-06 16.352 0.237062 16.9243 0.659019 17.3463C1.08098 17.7682 1.65327 18.0053 2.25001 18.0053H15.75C16.3467 18.0053 16.919 17.7682 17.341 17.3463C17.763 16.9243 18 16.352 18 15.7553V8.39252C18.0009 8.09694 17.943 7.80413 17.8298 7.53106C17.7167 7.258 17.5504 7.01011 17.3408 6.80177V6.80177ZM11.25 16.5053H6.75001V13.5548C6.75001 12.958 6.98706 12.3857 7.40902 11.9638C7.83098 11.5418 8.40327 11.3048 9.00001 11.3048C9.59675 11.3048 10.169 11.5418 10.591 11.9638C11.013 12.3857 11.25 12.958 11.25 13.5548V16.5053ZM16.5 15.7553C16.5 15.9542 16.421 16.145 16.2803 16.2856C16.1397 16.4263 15.9489 16.5053 15.75 16.5053H12.75V13.5548C12.75 12.5602 12.3549 11.6064 11.6517 10.9031C10.9484 10.1999 9.99457 9.80477 9.00001 9.80477C8.00545 9.80477 7.05162 10.1999 6.34836 10.9031C5.6451 11.6064 5.25001 12.5602 5.25001 13.5548V16.5053H2.25001C2.0511 16.5053 1.86033 16.4263 1.71968 16.2856C1.57903 16.145 1.50001 15.9542 1.50001 15.7553V8.39252C1.5007 8.19376 1.57965 8.00326 1.71976 7.86227L7.40851 2.17502C7.83128 1.75422 8.40351 1.51798 9.00001 1.51798C9.59651 1.51798 10.1687 1.75422 10.5915 2.17502L16.2803 7.86452C16.4198 8.00496 16.4987 8.19454 16.5 8.39252V15.7553Z" fill="#87888C"/>
</g>
<defs>
<clipPath id="clip0_58_8">
<rect width="18" height="18" fill="white"/>
</clipPath>
</defs>
</svg>
