<svg width="32" height="32" viewBox="0 0 32 32" fill="none" xmlns="http://www.w3.org/2000/svg">
<rect width="32" height="32" rx="5" fill="#F46E27"/>
<path d="M20.1667 15.1667H16.8333V11.8333C16.8333 11.6123 16.7455 11.4004 16.5893 11.2441C16.433 11.0878 16.221 11 16 11C15.779 11 15.567 11.0878 15.4107 11.2441C15.2545 11.4004 15.1667 11.6123 15.1667 11.8333V15.1667H11.8333C11.6123 15.1667 11.4004 15.2545 11.2441 15.4107C11.0878 15.567 11 15.779 11 16C11 16.221 11.0878 16.433 11.2441 16.5893C11.4004 16.7455 11.6123 16.8333 11.8333 16.8333H15.1667V20.1667C15.1667 20.3877 15.2545 20.5996 15.4107 20.7559C15.567 20.9122 15.779 21 16 21C16.221 21 16.433 20.9122 16.5893 20.7559C16.7455 20.5996 16.8333 20.3877 16.8333 20.1667V16.8333H20.1667C20.3877 16.8333 20.5996 16.7455 20.7559 16.5893C20.9122 16.433 21 16.221 21 16C21 15.779 20.9122 15.567 20.7559 15.4107C20.5996 15.2545 20.3877 15.1667 20.1667 15.1667Z" fill="#F4F5FA"/>
</svg>
